<?xml version="1.0" encoding="UTF-8"?>
<svg version="1.1" xmlns="http://www.w3.org/2000/svg" width="445" height="425">
<path d="M0 0 C8.40222816 5.88453923 13.88642664 14.01400428 18.375 23.0625 C18.87443115 24.043396 19.3738623 25.02429199 19.88842773 26.03491211 C25.19398848 36.52747814 30.26157066 47.13992993 35.3515625 57.73828125 C36.48434167 60.09637018 37.61715304 62.45444364 38.75 64.8125 C39.53068848 66.43937744 39.53068848 66.43937744 40.32714844 68.09912109 C41.76945496 71.09249059 43.22617763 74.07837735 44.6875 77.0625 C45.09943604 77.92431885 45.51137207 78.7861377 45.93579102 79.67407227 C52.4069344 92.79427328 61.6450025 102.43729504 75.68972778 107.22375488 C82.68092215 109.22156445 90.04040285 109.94203585 97.23059082 110.89532471 C100.42393867 111.31899279 103.613874 111.76311001 106.80371094 112.21240234 C114.9032487 113.34856459 123.00797721 114.44534883 131.11425781 115.53222656 C135.03578372 116.0581633 138.95525224 116.597508 142.87371826 117.14575195 C144.92813415 117.42763926 146.98436059 117.6900717 149.04150391 117.95117188 C159.54341392 119.40830343 169.21432323 122.35869561 177.75 128.8125 C178.554375 129.34875 179.35875 129.885 180.1875 130.4375 C189.41958368 138.99406537 194.90185781 150.9472672 195.97265625 163.40234375 C196.42487997 177.1066886 191.99772541 189.30029839 182.9375 199.5 C179.50168954 203.12221074 175.96482758 206.46624957 172.14453125 209.671875 C168.70562222 212.74613625 165.49322853 216.0340491 162.25 219.3125 C154.40534979 227.2343107 154.40534979 227.2343107 150.75 230.3125 C148.10858663 232.58458786 145.57796445 234.92044169 143.11328125 237.3828125 C142.44876953 238.04603516 141.78425781 238.70925781 141.09960938 239.39257812 C138.53754759 241.96446565 135.97856848 244.53929081 133.42797852 247.12255859 C131.96041678 248.60058309 130.47391216 250.0597497 128.984375 251.515625 C119.78158958 260.97583099 115.79121683 272.76325065 115.75 285.8125 C116.30268547 291.30506005 117.26014049 296.697047 118.25 302.125 C118.52241271 303.68969544 118.79337646 305.25464373 119.06298828 306.81982422 C120.38353629 314.42714762 121.78132395 322.0193006 123.21881104 329.60533142 C123.87015592 333.04876311 124.51132129 336.49407062 125.15307617 339.93930054 C125.6100956 342.35860133 126.08645015 344.77349322 126.56445312 347.1887207 C129.86466526 364.40772664 131.21301393 381.10592078 121.40234375 396.43359375 C113.60823461 407.65489981 103.66079554 414.3014255 90.33984375 417.3671875 C87.58568873 417.84075262 84.98179044 418.01687893 82.1875 418.0625 C81.25808594 418.08828125 80.32867187 418.1140625 79.37109375 418.140625 C67.22492228 417.04000105 57.45542849 411.98959 46.875 406.375 C45.3129989 405.5583712 43.75049367 404.74270598 42.1875 403.92797852 C32.78093426 399.00994308 23.45421297 393.95186401 14.16210938 388.82104492 C8.31050794 385.60937051 2.39332729 382.5750041 -3.625 379.6875 C-4.38039062 379.32068115 -5.13578125 378.9538623 -5.9140625 378.57592773 C-12.76283094 375.35555921 -19.29050584 373.52799697 -26.9375 373.4375 C-28.01386719 373.40914063 -29.09023437 373.38078125 -30.19921875 373.3515625 C-40.66675113 374.04810296 -50.32571095 379.0283708 -59.375 383.9375 C-60.9988562 384.80072876 -60.9988562 384.80072876 -62.65551758 385.68139648 C-64.84021708 386.84329237 -67.02264538 388.00947013 -69.20263672 389.18017578 C-71.8991917 390.62458907 -74.60374332 392.05098747 -77.31640625 393.46484375 C-83.89242061 396.8933055 -90.44401978 400.35266179 -96.92578125 403.95703125 C-97.89491455 404.49384521 -98.86404785 405.03065918 -99.86254883 405.58374023 C-101.72185653 406.61644441 -103.5774862 407.65581299 -105.4284668 408.70336914 C-119.87326597 416.72313898 -134.02916696 420.39411598 -150.2734375 415.83984375 C-162.15994403 411.7372831 -172.00196506 403.80178183 -178.29296875 392.8203125 C-185.10465051 378.52968219 -183.68387011 364.22375833 -180.842453 349.10029411 C-180.3947432 346.71606556 -179.96167113 344.32954828 -179.53186035 341.94203186 C-178.61717514 336.87567976 -177.68469007 331.81269378 -176.75 326.75 C-175.66536622 320.87067281 -174.58841762 314.9901075 -173.52836609 309.10629463 C-173.1049006 306.77619933 -172.66886169 304.44870362 -172.23205566 302.12107849 C-169.21612657 285.67227951 -169.03489021 271.40400398 -178.09765625 256.765625 C-182.91147236 250.16082467 -188.93254913 244.80728576 -195.09765625 239.48828125 C-200.06634007 235.16174038 -204.63930823 230.47418184 -209.25 225.7734375 C-213.09697189 221.8813839 -217.04128174 218.19700251 -221.18310547 214.62158203 C-248.0543931 191.1020638 -248.0543931 191.1020638 -249.42700195 174.69702148 C-249.96745672 154.73464641 -249.96745672 154.73464641 -245.25 145.8125 C-244.81429687 144.95527344 -244.37859375 144.09804687 -243.9296875 143.21484375 C-237.90667396 132.30430282 -229.2768301 124.64365222 -217.25 120.8125 C-200.108582 116.62839705 -182.17432194 115.11462124 -164.69555664 112.79467773 C-161.129059 112.32083141 -157.56417375 111.83610042 -154.00003624 111.34483147 C-152.02451064 111.07560249 -150.04740365 110.81805713 -148.07026672 110.56092834 C-132.66760401 108.42733135 -117.32663533 104.48348781 -107.25 91.8125 C-99.01769938 79.0131765 -92.81535098 64.91137457 -86.1875 51.25 C-63.82437579 5.22820238 -63.82437579 5.22820238 -48.25 -3.1875 C-47.44175781 -3.62449219 -46.63351563 -4.06148438 -45.80078125 -4.51171875 C-31.41959764 -10.94600027 -12.89594274 -8.3765187 0 0 Z M-16.0625 153.25 C-17.48985763 154.23673443 -18.91876641 155.22122837 -20.34912109 156.20361328 C-23.38956219 158.29454452 -26.42181856 160.39673798 -29.45068359 162.50439453 C-34.3869232 165.9245442 -39.38544425 169.24642598 -44.39453125 172.55859375 C-46.90500971 174.22554806 -49.41480386 175.8935278 -51.92440796 177.5617981 C-53.54484791 178.63678417 -55.16723705 179.70883838 -56.79165649 180.77780151 C-70.25118299 189.26466085 -70.25118299 189.26466085 -79.6875 201.75 C-81.06169054 209.23170406 -80.43537767 214.41184503 -77.22265625 221.35546875 C-71.29890609 228.7337635 -61.93792363 231.87636948 -53.375 235.1875 C-52.24835938 235.63738281 -51.12171875 236.08726562 -49.9609375 236.55078125 C-44.26981145 238.96679448 -44.26981145 238.96679448 -38.25 239.8125 C-41.35522088 244.82092078 -44.99478644 248.93830301 -49.0625 253.1875 C-50.32380514 254.5212958 -51.58423287 255.85592189 -52.84375 257.19140625 C-53.43929687 257.82191895 -54.03484375 258.45243164 -54.6484375 259.10205078 C-57.03424122 261.65006005 -59.32836036 264.26974595 -61.6015625 266.91796875 C-63.67152142 269.29694998 -65.8080668 271.61166277 -67.9375 273.9375 C-73.9852587 280.28894462 -73.9852587 280.28894462 -76.6875 288.375 C-76.06530225 293.26369661 -74.39937042 295.59745127 -71.0625 299.125 C-67.43386574 301.30218056 -64.34578052 301.37633224 -60.25 300.8125 C-57.72156665 299.64714387 -55.76008232 298.55146749 -53.5 297 C-52.50577026 296.3493457 -52.50577026 296.3493457 -51.49145508 295.68554688 C-49.06211814 294.08337269 -46.65601982 292.44948049 -44.25 290.8125 C-42.14458641 289.39184534 -40.03911353 287.97127852 -37.93359375 286.55078125 C-33.78781475 283.74875574 -29.64982479 280.93555999 -25.51699829 278.11447144 C-19.9399516 274.30846685 -14.34676085 270.52914608 -8.72265625 266.79296875 C-7.80748482 266.18486862 -7.80748482 266.18486862 -6.87382507 265.56448364 C-3.96213524 263.63115258 -1.04808592 261.70146527 1.8684082 259.77539062 C15.5946102 251.63555472 15.5946102 251.63555472 23.34765625 238.49609375 C24.39142032 232.02070309 23.38089149 226.33003119 19.75 220.8125 C14.45454772 214.82699449 7.63764928 212.38214662 0.3125 209.625 C-1.3281543 208.98788086 -1.3281543 208.98788086 -3.00195312 208.33789062 C-6.07884546 207.14677577 -9.16217363 205.97493286 -12.25 204.8125 C-13.0970752 204.4932959 -13.94415039 204.1740918 -14.81689453 203.84521484 C-16.62697269 203.16509082 -18.43830602 202.48830808 -20.25 201.8125 C-14.34073253 194.89433321 -8.37987366 188.03678565 -2.25 181.3125 C1.80544563 176.85765442 5.85500959 172.40877822 9.75 167.8125 C10.33136719 167.15636719 10.91273438 166.50023437 11.51171875 165.82421875 C14.23080576 162.5600467 16.13618986 160.01902194 16.375 155.6875 C15.67786747 151.36527831 14.53634963 149.15611955 11.75 145.8125 C8.11761946 143.39091297 6.08502188 143.05816294 1.78369141 143.16455078 C-4.95727853 144.60431693 -10.52494825 149.32938783 -16.0625 153.25 Z " fill="#3F4ED2" transform="translate(249.25,7.1875)"/>
</svg>
